<?xml version="1.0" encoding="UTF-8" standalone="no"?>
<!-- Created with Inkscape (http://www.inkscape.org/) -->

<svg
   xmlns:dc="http://purl.org/dc/elements/1.1/"
   xmlns:cc="http://creativecommons.org/ns#"
   xmlns:rdf="http://www.w3.org/1999/02/22-rdf-syntax-ns#"
   xmlns:svg="http://www.w3.org/2000/svg"
   xmlns="http://www.w3.org/2000/svg"
   xmlns:sodipodi="http://sodipodi.sourceforge.net/DTD/sodipodi-0.dtd"
   xmlns:inkscape="http://www.inkscape.org/namespaces/inkscape"
   width="270.71124mm"
   height="159.23439mm"
   viewBox="0 0 959.21308 564.21634"
   id="svg2"
   version="1.1"
   inkscape:version="0.91 r13725"
   sodipodi:docname="ontoserver.svg">
  <defs
     id="defs4">
    <marker
       inkscape:isstock="true"
       style="overflow:visible"
       id="marker13102"
       refX="0"
       refY="0"
       orient="auto"
       inkscape:stockid="Arrow2Send">
      <path
         inkscape:connector-curvature="0"
         transform="matrix(-0.3,0,0,-0.3,0.69,0)"
         d="M 8.7185878,4.0337352 -2.2072895,0.01601326 8.7185884,-4.0017078 c -1.7454984,2.3720609 -1.7354408,5.6174519 -6e-7,8.035443 z"
         style="fill:#000000;fill-opacity:1;fill-rule:evenodd;stroke:#000000;stroke-width:0.625;stroke-linejoin:round;stroke-opacity:1"
         id="path13104" />
    </marker>
    <marker
       inkscape:isstock="true"
       style="overflow:visible"
       id="marker12936"
       refX="0"
       refY="0"
       orient="auto"
       inkscape:stockid="Arrow2Sstart">
      <path
         inkscape:connector-curvature="0"
         transform="matrix(0.3,0,0,0.3,-0.69,0)"
         d="M 8.7185878,4.0337352 -2.2072895,0.01601326 8.7185884,-4.0017078 c -1.7454984,2.3720609 -1.7354408,5.6174519 -6e-7,8.035443 z"
         style="fill:#000000;fill-opacity:1;fill-rule:evenodd;stroke:#000000;stroke-width:0.625;stroke-linejoin:round;stroke-opacity:1"
         id="path12938" />
    </marker>
    <marker
       inkscape:stockid="Arrow2Send"
       orient="auto"
       refY="0"
       refX="0"
       id="marker11658"
       style="overflow:visible"
       inkscape:isstock="true">
      <path
         id="path11660"
         style="fill:#000000;fill-opacity:1;fill-rule:evenodd;stroke:#000000;stroke-width:0.625;stroke-linejoin:round;stroke-opacity:1"
         d="M 8.7185878,4.0337352 -2.2072895,0.01601326 8.7185884,-4.0017078 c -1.7454984,2.3720609 -1.7354408,5.6174519 -6e-7,8.035443 z"
         transform="matrix(-0.3,0,0,-0.3,0.69,0)"
         inkscape:connector-curvature="0" />
    </marker>
    <marker
       inkscape:stockid="Arrow2Sstart"
       orient="auto"
       refY="0"
       refX="0"
       id="marker11486"
       style="overflow:visible"
       inkscape:isstock="true">
      <path
         id="path11488"
         style="fill:#000000;fill-opacity:1;fill-rule:evenodd;stroke:#000000;stroke-width:0.625;stroke-linejoin:round;stroke-opacity:1"
         d="M 8.7185878,4.0337352 -2.2072895,0.01601326 8.7185884,-4.0017078 c -1.7454984,2.3720609 -1.7354408,5.6174519 -6e-7,8.035443 z"
         transform="matrix(0.3,0,0,0.3,-0.69,0)"
         inkscape:connector-curvature="0" />
    </marker>
    <marker
       inkscape:stockid="Arrow2Send"
       orient="auto"
       refY="0"
       refX="0"
       id="marker9082"
       style="overflow:visible"
       inkscape:isstock="true">
      <path
         id="path9084"
         style="fill:#000000;fill-opacity:1;fill-rule:evenodd;stroke:#000000;stroke-width:0.625;stroke-linejoin:round;stroke-opacity:1"
         d="M 8.7185878,4.0337352 -2.2072895,0.01601326 8.7185884,-4.0017078 c -1.7454984,2.3720609 -1.7354408,5.6174519 -6e-7,8.035443 z"
         transform="matrix(-0.3,0,0,-0.3,0.69,0)"
         inkscape:connector-curvature="0" />
    </marker>
    <marker
       inkscape:stockid="Arrow2Sstart"
       orient="auto"
       refY="0"
       refX="0"
       id="marker8940"
       style="overflow:visible"
       inkscape:isstock="true">
      <path
         id="path8942"
         style="fill:#000000;fill-opacity:1;fill-rule:evenodd;stroke:#000000;stroke-width:0.625;stroke-linejoin:round;stroke-opacity:1"
         d="M 8.7185878,4.0337352 -2.2072895,0.01601326 8.7185884,-4.0017078 c -1.7454984,2.3720609 -1.7354408,5.6174519 -6e-7,8.035443 z"
         transform="matrix(0.3,0,0,0.3,-0.69,0)"
         inkscape:connector-curvature="0" />
    </marker>
    <marker
       inkscape:isstock="true"
       style="overflow:visible"
       id="marker8309"
       refX="0"
       refY="0"
       orient="auto"
       inkscape:stockid="Arrow2Send"
       inkscape:collect="always">
      <path
         inkscape:connector-curvature="0"
         transform="matrix(-0.3,0,0,-0.3,0.69,0)"
         d="M 8.7185878,4.0337352 -2.2072895,0.01601326 8.7185884,-4.0017078 c -1.7454984,2.3720609 -1.7354408,5.6174519 -6e-7,8.035443 z"
         style="fill:#000000;fill-opacity:1;fill-rule:evenodd;stroke:#000000;stroke-width:0.625;stroke-linejoin:round;stroke-opacity:1"
         id="path8311" />
    </marker>
    <marker
       inkscape:isstock="true"
       style="overflow:visible"
       id="marker8179"
       refX="0"
       refY="0"
       orient="auto"
       inkscape:stockid="Arrow2Sstart"
       inkscape:collect="always">
      <path
         inkscape:connector-curvature="0"
         transform="matrix(0.3,0,0,0.3,-0.69,0)"
         d="M 8.7185878,4.0337352 -2.2072895,0.01601326 8.7185884,-4.0017078 c -1.7454984,2.3720609 -1.7354408,5.6174519 -6e-7,8.035443 z"
         style="fill:#000000;fill-opacity:1;fill-rule:evenodd;stroke:#000000;stroke-width:0.625;stroke-linejoin:round;stroke-opacity:1"
         id="path8181" />
    </marker>
    <marker
       inkscape:isstock="true"
       style="overflow:visible"
       id="marker7623"
       refX="0"
       refY="0"
       orient="auto"
       inkscape:stockid="Arrow2Send"
       inkscape:collect="always">
      <path
         inkscape:connector-curvature="0"
         transform="matrix(-0.3,0,0,-0.3,0.69,0)"
         d="M 8.7185878,4.0337352 -2.2072895,0.01601326 8.7185884,-4.0017078 c -1.7454984,2.3720609 -1.7354408,5.6174519 -6e-7,8.035443 z"
         style="fill:#000000;fill-opacity:1;fill-rule:evenodd;stroke:#000000;stroke-width:0.625;stroke-linejoin:round;stroke-opacity:1"
         id="path7625" />
    </marker>
    <marker
       inkscape:isstock="true"
       style="overflow:visible"
       id="marker7505"
       refX="0"
       refY="0"
       orient="auto"
       inkscape:stockid="Arrow2Sstart">
      <path
         inkscape:connector-curvature="0"
         transform="matrix(0.3,0,0,0.3,-0.69,0)"
         d="M 8.7185878,4.0337352 -2.2072895,0.01601326 8.7185884,-4.0017078 c -1.7454984,2.3720609 -1.7354408,5.6174519 -6e-7,8.035443 z"
         style="fill:#000000;fill-opacity:1;fill-rule:evenodd;stroke:#000000;stroke-width:0.625;stroke-linejoin:round;stroke-opacity:1"
         id="path7507" />
    </marker>
    <marker
       inkscape:isstock="true"
       style="overflow:visible"
       id="marker6959"
       refX="0"
       refY="0"
       orient="auto"
       inkscape:stockid="Arrow2Send">
      <path
         inkscape:connector-curvature="0"
         transform="matrix(-0.3,0,0,-0.3,0.69,0)"
         d="M 8.7185878,4.0337352 -2.2072895,0.01601326 8.7185884,-4.0017078 c -1.7454984,2.3720609 -1.7354408,5.6174519 -6e-7,8.035443 z"
         style="fill:#000000;fill-opacity:1;fill-rule:evenodd;stroke:#000000;stroke-width:0.625;stroke-linejoin:round;stroke-opacity:1"
         id="path6961" />
    </marker>
    <marker
       inkscape:isstock="true"
       style="overflow:visible"
       id="marker6853"
       refX="0"
       refY="0"
       orient="auto"
       inkscape:stockid="Arrow2Sstart"
       inkscape:collect="always">
      <path
         inkscape:connector-curvature="0"
         transform="matrix(0.3,0,0,0.3,-0.69,0)"
         d="M 8.7185878,4.0337352 -2.2072895,0.01601326 8.7185884,-4.0017078 c -1.7454984,2.3720609 -1.7354408,5.6174519 -6e-7,8.035443 z"
         style="fill:#000000;fill-opacity:1;fill-rule:evenodd;stroke:#000000;stroke-width:0.625;stroke-linejoin:round;stroke-opacity:1"
         id="path6855" />
    </marker>
    <marker
       inkscape:isstock="true"
       style="overflow:visible"
       id="marker6459"
       refX="0"
       refY="0"
       orient="auto"
       inkscape:stockid="Arrow2Send">
      <path
         inkscape:connector-curvature="0"
         transform="matrix(-0.3,0,0,-0.3,0.69,0)"
         d="M 8.7185878,4.0337352 -2.2072895,0.01601326 8.7185884,-4.0017078 c -1.7454984,2.3720609 -1.7354408,5.6174519 -6e-7,8.035443 z"
         style="fill:#000000;fill-opacity:1;fill-rule:evenodd;stroke:#000000;stroke-width:0.625;stroke-linejoin:round;stroke-opacity:1"
         id="path6461" />
    </marker>
    <marker
       inkscape:isstock="true"
       style="overflow:visible"
       id="marker6365"
       refX="0"
       refY="0"
       orient="auto"
       inkscape:stockid="Arrow2Sstart">
      <path
         inkscape:connector-curvature="0"
         transform="matrix(0.3,0,0,0.3,-0.69,0)"
         d="M 8.7185878,4.0337352 -2.2072895,0.01601326 8.7185884,-4.0017078 c -1.7454984,2.3720609 -1.7354408,5.6174519 -6e-7,8.035443 z"
         style="fill:#000000;fill-opacity:1;fill-rule:evenodd;stroke:#000000;stroke-width:0.625;stroke-linejoin:round;stroke-opacity:1"
         id="path6367" />
    </marker>
    <marker
       inkscape:stockid="Arrow2Send"
       orient="auto"
       refY="0"
       refX="0"
       id="marker5809"
       style="overflow:visible"
       inkscape:isstock="true"
       inkscape:collect="always">
      <path
         id="path5811"
         style="fill:#000000;fill-opacity:1;fill-rule:evenodd;stroke:#000000;stroke-width:0.625;stroke-linejoin:round;stroke-opacity:1"
         d="M 8.7185878,4.0337352 -2.2072895,0.01601326 8.7185884,-4.0017078 c -1.7454984,2.3720609 -1.7354408,5.6174519 -6e-7,8.035443 z"
         transform="matrix(-0.3,0,0,-0.3,0.69,0)"
         inkscape:connector-curvature="0" />
    </marker>
    <marker
       inkscape:stockid="Arrow2Sstart"
       orient="auto"
       refY="0"
       refX="0"
       id="marker5727"
       style="overflow:visible"
       inkscape:isstock="true"
       inkscape:collect="always">
      <path
         id="path5729"
         style="fill:#000000;fill-opacity:1;fill-rule:evenodd;stroke:#000000;stroke-width:0.625;stroke-linejoin:round;stroke-opacity:1"
         d="M 8.7185878,4.0337352 -2.2072895,0.01601326 8.7185884,-4.0017078 c -1.7454984,2.3720609 -1.7354408,5.6174519 -6e-7,8.035443 z"
         transform="matrix(0.3,0,0,0.3,-0.69,0)"
         inkscape:connector-curvature="0" />
    </marker>
    <marker
       inkscape:isstock="true"
       style="overflow:visible"
       id="marker5267"
       refX="0"
       refY="0"
       orient="auto"
       inkscape:stockid="Arrow2Send"
       inkscape:collect="always">
      <path
         inkscape:connector-curvature="0"
         transform="matrix(-0.3,0,0,-0.3,0.69,0)"
         d="M 8.7185878,4.0337352 -2.2072895,0.01601326 8.7185884,-4.0017078 c -1.7454984,2.3720609 -1.7354408,5.6174519 -6e-7,8.035443 z"
         style="fill:#000000;fill-opacity:1;fill-rule:evenodd;stroke:#000000;stroke-width:0.625;stroke-linejoin:round;stroke-opacity:1"
         id="path5269" />
    </marker>
    <marker
       inkscape:isstock="true"
       style="overflow:visible"
       id="marker5197"
       refX="0"
       refY="0"
       orient="auto"
       inkscape:stockid="Arrow2Sstart"
       inkscape:collect="always">
      <path
         inkscape:connector-curvature="0"
         transform="matrix(0.3,0,0,0.3,-0.69,0)"
         d="M 8.7185878,4.0337352 -2.2072895,0.01601326 8.7185884,-4.0017078 c -1.7454984,2.3720609 -1.7354408,5.6174519 -6e-7,8.035443 z"
         style="fill:#000000;fill-opacity:1;fill-rule:evenodd;stroke:#000000;stroke-width:0.625;stroke-linejoin:round;stroke-opacity:1"
         id="path5199" />
    </marker>
    <marker
       inkscape:stockid="Arrow2Sstart"
       orient="auto"
       refY="0"
       refX="0"
       id="Arrow2Sstart"
       style="overflow:visible"
       inkscape:isstock="true"
       inkscape:collect="always">
      <path
         id="path4313"
         style="fill:#000000;fill-opacity:1;fill-rule:evenodd;stroke:#000000;stroke-width:0.625;stroke-linejoin:round;stroke-opacity:1"
         d="M 8.7185878,4.0337352 -2.2072895,0.01601326 8.7185884,-4.0017078 c -1.7454984,2.3720609 -1.7354408,5.6174519 -6e-7,8.035443 z"
         transform="matrix(0.3,0,0,0.3,-0.69,0)"
         inkscape:connector-curvature="0" />
    </marker>
    <marker
       inkscape:stockid="Arrow2Mstart"
       orient="auto"
       refY="0"
       refX="0"
       id="Arrow2Mstart"
       style="overflow:visible"
       inkscape:isstock="true">
      <path
         id="path4307"
         style="fill:#000000;fill-opacity:1;fill-rule:evenodd;stroke:#000000;stroke-width:0.625;stroke-linejoin:round;stroke-opacity:1"
         d="M 8.7185878,4.0337352 -2.2072895,0.01601326 8.7185884,-4.0017078 c -1.7454984,2.3720609 -1.7354408,5.6174519 -6e-7,8.035443 z"
         transform="scale(0.6,0.6)"
         inkscape:connector-curvature="0" />
    </marker>
    <marker
       inkscape:stockid="Arrow2Send"
       orient="auto"
       refY="0"
       refX="0"
       id="Arrow2Send"
       style="overflow:visible"
       inkscape:isstock="true"
       inkscape:collect="always">
      <path
         id="path4316"
         style="fill:#000000;fill-opacity:1;fill-rule:evenodd;stroke:#000000;stroke-width:0.625;stroke-linejoin:round;stroke-opacity:1"
         d="M 8.7185878,4.0337352 -2.2072895,0.01601326 8.7185884,-4.0017078 c -1.7454984,2.3720609 -1.7354408,5.6174519 -6e-7,8.035443 z"
         transform="matrix(-0.3,0,0,-0.3,0.69,0)"
         inkscape:connector-curvature="0" />
    </marker>
    <marker
       inkscape:stockid="Arrow1Mend"
       orient="auto"
       refY="0"
       refX="0"
       id="marker4791"
       style="overflow:visible"
       inkscape:isstock="true">
      <path
         id="path4793"
         d="M 0,0 5,-5 -12.5,0 5,5 0,0 Z"
         style="fill:#c0dae0;fill-opacity:1;fill-rule:evenodd;stroke:#000000;stroke-width:1pt;stroke-opacity:1"
         transform="matrix(-0.4,0,0,-0.4,-4,0)"
         inkscape:connector-curvature="0" />
    </marker>
    <marker
       inkscape:stockid="Arrow1Mend"
       orient="auto"
       refY="0"
       refX="0"
       id="Arrow1Mend"
       style="overflow:visible"
       inkscape:isstock="true">
      <path
         id="path4292"
         d="M 0,0 5,-5 -12.5,0 5,5 0,0 Z"
         style="fill:#c0dae0;fill-opacity:1;fill-rule:evenodd;stroke:#000000;stroke-width:1pt;stroke-opacity:1"
         transform="matrix(-0.4,0,0,-0.4,-4,0)"
         inkscape:connector-curvature="0" />
    </marker>
    <marker
       inkscape:stockid="Arrow1Lend"
       orient="auto"
       refY="0"
       refX="0"
       id="Arrow1Lend"
       style="overflow:visible"
       inkscape:isstock="true">
      <path
         id="path4286"
         d="M 0,0 5,-5 -12.5,0 5,5 0,0 Z"
         style="fill:#c0dae0;fill-opacity:1;fill-rule:evenodd;stroke:#000000;stroke-width:1pt;stroke-opacity:1"
         transform="matrix(-0.8,0,0,-0.8,-10,0)"
         inkscape:connector-curvature="0" />
    </marker>
    <marker
       inkscape:stockid="Arrow1Lstart"
       orient="auto"
       refY="0"
       refX="0"
       id="marker4581"
       style="overflow:visible"
       inkscape:isstock="true">
      <path
         id="path4583"
         d="M 0,0 5,-5 -12.5,0 5,5 0,0 Z"
         style="fill:#c0dae0;fill-opacity:1;fill-rule:evenodd;stroke:#000000;stroke-width:1pt;stroke-opacity:1"
         transform="matrix(0.8,0,0,0.8,10,0)"
         inkscape:connector-curvature="0" />
    </marker>
    <marker
       inkscape:stockid="Arrow1Lstart"
       orient="auto"
       refY="0"
       refX="0"
       id="marker4559"
       style="overflow:visible"
       inkscape:isstock="true">
      <path
         id="path4561"
         d="M 0,0 5,-5 -12.5,0 5,5 0,0 Z"
         style="fill:#c0dae0;fill-opacity:1;fill-rule:evenodd;stroke:#000000;stroke-width:1pt;stroke-opacity:1"
         transform="matrix(0.8,0,0,0.8,10,0)"
         inkscape:connector-curvature="0" />
    </marker>
    <marker
       inkscape:stockid="Arrow1Lstart"
       orient="auto"
       refY="0"
       refX="0"
       id="Arrow1Lstart"
       style="overflow:visible"
       inkscape:isstock="true">
      <path
         id="path4283"
         d="M 0,0 5,-5 -12.5,0 5,5 0,0 Z"
         style="fill:#c0dae0;fill-opacity:1;fill-rule:evenodd;stroke:#000000;stroke-width:1pt;stroke-opacity:1"
         transform="matrix(0.8,0,0,0.8,10,0)"
         inkscape:connector-curvature="0" />
    </marker>
  </defs>
  <sodipodi:namedview
     id="base"
     pagecolor="#ffffff"
     bordercolor="#666666"
     borderopacity="0.30196078"
     inkscape:pageopacity="0.0"
     inkscape:pageshadow="2"
     inkscape:zoom="0.69913105"
     inkscape:cx="479.78374"
     inkscape:cy="282.10814"
     inkscape:document-units="px"
     inkscape:current-layer="layer1"
     showgrid="false"
     fit-margin-left="3"
     fit-margin-right="2.9"
     fit-margin-top="3"
     fit-margin-bottom="3"
     inkscape:window-width="1278"
     inkscape:window-height="1002"
     inkscape:window-x="0"
     inkscape:window-y="20"
     inkscape:window-maximized="1"
     showborder="true"
     inkscape:showpageshadow="false"
     showguides="true" />
  <metadata
     id="metadata7">
    <rdf:RDF>
      <cc:Work
         rdf:about="">
        <dc:format>image/svg+xml</dc:format>
        <dc:type
           rdf:resource="http://purl.org/dc/dcmitype/StillImage" />
        <dc:title></dc:title>
        <cc:license
           rdf:resource="http://artlibre.org/licence/lal" />
      </cc:Work>
      <cc:License
         rdf:about="http://artlibre.org/licence/lal">
        <cc:permits
           rdf:resource="http://creativecommons.org/ns#Reproduction" />
        <cc:permits
           rdf:resource="http://creativecommons.org/ns#Distribution" />
        <cc:permits
           rdf:resource="http://creativecommons.org/ns#DerivativeWorks" />
        <cc:requires
           rdf:resource="http://creativecommons.org/ns#ShareAlike" />
        <cc:requires
           rdf:resource="http://creativecommons.org/ns#Notice" />
        <cc:requires
           rdf:resource="http://creativecommons.org/ns#Attribution" />
      </cc:License>
    </rdf:RDF>
  </metadata>
  <g
     inkscape:label="Layer 1"
     inkscape:groupmode="layer"
     id="layer1"
     transform="translate(471.81818,76.617189)">
    <g
       transform="matrix(0.13044326,0,0,0.14081442,194.61021,135.73855)"
       id="g4219">
      <g
         transform="matrix(0.1,0,0,-0.1,0,502)"
         id="g4221">
        <path
           inkscape:connector-curvature="0"
           d="M 4481.6,4914 C 3398,4824 2637.1,4644 1977.9,4319.3 1608.2,4137.4 1424.3,4012.2 1215,3800.9 1025.3,3609.2 937.2,3476.2 855.1,3266.9 l -50.9,-131.1 0,-3119.8 0,-3119.9 45,-117.4 c 289.5,-764.8 1373.2,-1357.5 2869.5,-1572.7 467.5,-66.5 745.3,-86.1 1281.2,-86.1 285.6,0 627.9,11.7 762.9,23.5 1803.5,172.2 3063.2,778.6 3387.9,1635.3 l 45,117.4 0,3119.9 0,3119.9 -50.8,131.1 c -82.2,209.3 -170.2,342.3 -359.9,534 -209.3,211.2 -393.2,336.4 -762.9,518.4 -567.3,279.7 -1267.5,465.5 -2102.8,557.5 -269.9,31.2 -1220.5,54.7 -1437.7,37.1 z m 987.9,-408.9 c 1517.9,-52.8 2920.4,-606.4 3252.9,-1281.2 56.7,-113.4 62.6,-142.8 62.6,-303.2 0,-148.7 -7.8,-193.6 -50.8,-283.6 -127.1,-269.9 -422.5,-522.3 -868.5,-743.3 -530.1,-260.2 -1120.8,-422.5 -1922.8,-522.3 -381.4,-48.9 -1504.2,-48.9 -1885.6,0 -802,99.8 -1392.7,262.1 -1922.8,522.3 -446,221 -741.3,473.4 -868.5,743.3 -43,90 -50.9,135 -50.9,283.6 0,160.4 5.9,189.7 62.6,303.2 340.3,692.5 1719.3,1222.6 3350.6,1289.1 187.8,7.8 391.2,11.7 449.9,7.8 58.7,-2 234.8,-9.8 391.3,-15.7 z M 1637.5,1708 C 2955.9,890.4 5356,679.1 7227.9,1219 c 588.8,168.2 1097.3,420.6 1445.5,714 l 140.8,119.3 0,-524.3 c -2,-618.1 -13.7,-743.3 -95.9,-917.4 -72.4,-154.5 -309.1,-401 -510.5,-534 -279.7,-183.9 -745.3,-381.4 -1173.6,-500.8 -1236.2,-340.4 -2832.4,-340.4 -4068.6,0 -428.4,119.3 -893.9,316.9 -1173.6,500.8 -201.5,133 -438.2,379.5 -510.5,534 -82.1,174.1 -93.9,299.3 -95.8,917.4 l 0,524.2 142.8,-119.3 c 76.3,-66.5 217.1,-166.2 309,-224.9 z M 1256.1,-5.5 c 54.8,-60.7 313,-254.3 447.9,-334.5 588.8,-350.1 1437.7,-594.6 2445.1,-704.2 311,-33.2 1390.7,-33.2 1701.8,0 1007.3,109.6 1856.3,354.1 2445,704.2 135,80.2 393.2,273.8 447.9,334.5 21.5,21.5 45,41.1 54.8,41.1 21.5,0 19.6,-983.9 -2,-1169.7 -82.1,-712 -1226.4,-1306.6 -2887.1,-1504.2 -414.7,-48.9 -1404.4,-48.9 -1819.1,0 -1648.9,195.6 -2795.2,788.3 -2885.2,1492.5 -23.5,172.1 -25.4,1181.5 -3.9,1181.5 9.8,-0.1 33.3,-19.7 54.8,-41.2 z m 156.5,-2136 c 637.7,-518.4 1862.2,-874.4 3190.3,-931.1 1441.6,-58.7 2810.9,209.3 3673.5,721.8 172.1,103.7 246.5,156.5 481.2,350.1 l 56.7,46.9 0,-447.9 c 0,-246.5 -7.8,-498.8 -19.6,-561.4 -58.7,-359.9 -363.8,-672.9 -929.1,-952.6 -528.1,-260.1 -1103.2,-416.6 -1916.9,-522.3 -393.2,-48.9 -1504.2,-48.9 -1897.4,0 -813.7,105.6 -1388.8,262.1 -1916.9,522.3 -565.3,279.7 -870.4,592.7 -929.1,952.6 -11.7,62.6 -19.6,314.9 -19.6,561.4 l 0,447.9 56.7,-46.9 c 31.3,-25.4 107.6,-88 170.2,-140.8 z"
           id="path4223" />
      </g>
    </g>
    <g
       id="g4256"
       transform="matrix(1.0047152,0,0,1.0048022,-167.94663,52.735342)">
      <rect
         y="86.495522"
         x="41.937241"
         height="132.36436"
         width="263.41818"
         id="rect3336"
         style="opacity:1;fill:#c0dae0;fill-opacity:1;fill-rule:nonzero;stroke:#000000;stroke-width:4.97631884;stroke-linecap:round;stroke-linejoin:round;stroke-miterlimit:4;stroke-dasharray:none;stroke-dashoffset:0;stroke-opacity:1" />
      <text
         sodipodi:linespacing="100%"
         id="text4250"
         y="144.33484"
         x="172.79588"
         style="font-style:normal;font-weight:normal;font-size:45px;line-height:100%;font-family:Sans;text-align:center;letter-spacing:0px;word-spacing:0px;text-anchor:middle;fill:#000000;fill-opacity:1;stroke:none;stroke-width:1px;stroke-linecap:butt;stroke-linejoin:miter;stroke-opacity:1"
         xml:space="preserve"><tspan
           y="144.33484"
           x="172.79588"
           id="tspan4252"
           sodipodi:role="line"
           style="font-size:34.83423615px">Граф-интер-</tspan><tspan
           id="tspan4254"
           y="179.16907"
           x="172.79588"
           sodipodi:role="line"
           style="font-size:34.83423615px">претатор</tspan><tspan
           y="214.0033"
           x="172.79588"
           sodipodi:role="line"
           style="font-size:34.83423615px"
           id="tspan6337" /></text>
    </g>
    <path
       style="opacity:0.97000002;fill:#000000;fill-opacity:1;fill-rule:nonzero;stroke:#000000;stroke-width:5;stroke-linecap:round;stroke-linejoin:round;stroke-miterlimit:4;stroke-dasharray:none;stroke-dashoffset:0;stroke-opacity:1;marker-start:url(#Arrow2Sstart);marker-end:url(#Arrow2Send)"
       d="m 197.20294,206.14623 -49.60146,0"
       id="path4262"
       inkscape:connector-curvature="0"
       sodipodi:nodetypes="cc" />
    <g
       transform="matrix(1.0047152,0,0,1.0048022,-167.94663,-150.39808)"
       id="g5167">
      <rect
         style="opacity:1;fill:#c0dae0;fill-opacity:1;fill-rule:nonzero;stroke:#000000;stroke-width:4.97631884;stroke-linecap:round;stroke-linejoin:round;stroke-miterlimit:4;stroke-dasharray:none;stroke-dashoffset:0;stroke-opacity:1"
         id="rect5169"
         width="263.41818"
         height="132.36436"
         x="41.937241"
         y="86.495522" />
      <text
         xml:space="preserve"
         style="font-style:normal;font-weight:normal;font-size:45px;line-height:100%;font-family:Sans;text-align:center;letter-spacing:0px;word-spacing:0px;text-anchor:middle;fill:#000000;fill-opacity:1;stroke:none;stroke-width:1px;stroke-linecap:butt;stroke-linejoin:miter;stroke-opacity:1"
         x="172.27304"
         y="166.47653"
         id="text5171"
         sodipodi:linespacing="100%"><tspan
           sodipodi:role="line"
           x="172.27304"
           y="166.47653"
           id="tspan5179"
           style="font-size:34.83423615px">SPARQL</tspan></text>
    </g>
    <path
       sodipodi:nodetypes="cc"
       inkscape:connector-curvature="0"
       id="path5195"
       d="m 8.58493,128.86175 0,-49.601462"
       style="opacity:0.97000002;fill:#000000;fill-opacity:1;fill-rule:nonzero;stroke:#000000;stroke-width:5;stroke-linecap:round;stroke-linejoin:round;stroke-miterlimit:4;stroke-dasharray:none;stroke-dashoffset:0;stroke-opacity:1;marker-start:url(#marker5197);marker-end:url(#marker5267)" />
    <g
       transform="matrix(1.0047152,0,0,1.0048022,-167.94663,254.55823)"
       id="g5703">
      <rect
         style="opacity:1;fill:#e0cac0;fill-opacity:1;fill-rule:nonzero;stroke:#000000;stroke-width:4.97631884;stroke-linecap:round;stroke-linejoin:round;stroke-miterlimit:4;stroke-dasharray:none;stroke-dashoffset:0;stroke-opacity:1"
         id="rect5705"
         width="263.41818"
         height="132.36436"
         x="41.937241"
         y="86.495522" />
      <text
         xml:space="preserve"
         style="font-style:normal;font-weight:normal;font-size:34.83423615px;line-height:100%;font-family:Sans;text-align:center;letter-spacing:0px;word-spacing:0px;text-anchor:middle;fill:#000000;fill-opacity:1;stroke:none;stroke-width:1px;stroke-linecap:butt;stroke-linejoin:miter;stroke-opacity:1"
         x="172.5477"
         y="141.90012"
         id="text5707"
         sodipodi:linespacing="100%"><tspan
           sodipodi:role="line"
           x="172.5477"
           y="141.90012"
           id="tspan6331">Интерфейс</tspan><tspan
           sodipodi:role="line"
           x="172.5477"
           y="176.73434"
           id="tspan6335">МВ</tspan></text>
    </g>
    <path
       style="opacity:0.97000002;fill:#000000;fill-opacity:1;fill-rule:nonzero;stroke:#000000;stroke-width:5;stroke-linecap:round;stroke-linejoin:round;stroke-miterlimit:4;stroke-dasharray:none;stroke-dashoffset:0;stroke-opacity:1;marker-start:url(#marker5727);marker-end:url(#marker5809)"
       d="m 8.58493,331.99518 0,-49.60147"
       id="path5725"
       inkscape:connector-curvature="0"
       sodipodi:nodetypes="cc" />
    <g
       id="g6341"
       transform="matrix(1.0047152,0,0,1.0048022,164.93008,254.55823)">
      <rect
         y="86.495522"
         x="41.937241"
         height="132.36436"
         width="263.41818"
         id="rect6343"
         style="opacity:1;fill:#e0cac0;fill-opacity:1;fill-rule:nonzero;stroke:#000000;stroke-width:4.97631884;stroke-linecap:round;stroke-linejoin:round;stroke-miterlimit:4;stroke-dasharray:none;stroke-dashoffset:0;stroke-opacity:1" />
      <text
         sodipodi:linespacing="100%"
         id="text6345"
         y="141.90012"
         x="172.5477"
         style="font-style:normal;font-weight:normal;font-size:34.83423615px;line-height:100%;font-family:Sans;text-align:center;letter-spacing:0px;word-spacing:0px;text-anchor:middle;fill:#000000;fill-opacity:1;stroke:none;stroke-width:1px;stroke-linecap:butt;stroke-linejoin:miter;stroke-opacity:1"
         xml:space="preserve"><tspan
           id="tspan6349"
           y="141.90012"
           x="172.5477"
           sodipodi:role="line">Машина</tspan><tspan
           y="176.73434"
           x="172.5477"
           sodipodi:role="line"
           id="tspan6837">вывода</tspan></text>
    </g>
    <path
       sodipodi:nodetypes="cc"
       inkscape:connector-curvature="0"
       id="path6851"
       d="m 197.20294,406.65858 -49.60146,0"
       style="opacity:0.97000002;fill:#000000;fill-opacity:1;fill-rule:nonzero;stroke:#000000;stroke-width:5;stroke-linecap:round;stroke-linejoin:round;stroke-miterlimit:4;stroke-dasharray:none;stroke-dashoffset:0;stroke-opacity:1;marker-start:url(#marker6853);marker-end:url(#marker6959)" />
    <path
       sodipodi:nodetypes="cc"
       inkscape:connector-curvature="0"
       id="path7503"
       d="m 197.20294,5.6338797 -49.60146,0"
       style="opacity:0.97000002;fill:#000000;fill-opacity:1;fill-rule:nonzero;stroke:#000000;stroke-width:5;stroke-linecap:round;stroke-linejoin:round;stroke-miterlimit:4;stroke-dasharray:none;stroke-dashoffset:0;stroke-opacity:1;marker-start:url(#marker7505);marker-end:url(#marker7623)" />
    <text
       transform="scale(0.99995671,1.0000433)"
       sodipodi:linespacing="100%"
       id="text6345-3"
       y="-17.565619"
       x="157.45741"
       style="font-style:normal;font-weight:normal;font-size:35px;line-height:100%;font-family:Sans;text-align:start;letter-spacing:0px;word-spacing:0px;text-anchor:start;fill:#000000;fill-opacity:1;stroke:none;stroke-width:1px;stroke-linecap:butt;stroke-linejoin:miter;stroke-opacity:1"
       xml:space="preserve"><tspan
         y="-17.565619"
         x="157.45741"
         sodipodi:role="line"
         id="tspan6837-7">http://..../sparql?...</tspan></text>
    <g
       transform="matrix(1.0047152,0,0,1.0048022,-500.82335,52.735342)"
       id="g8153">
      <rect
         style="opacity:1;fill:#c0dae0;fill-opacity:1;fill-rule:nonzero;stroke:#000000;stroke-width:4.97631884;stroke-linecap:round;stroke-linejoin:round;stroke-miterlimit:4;stroke-dasharray:none;stroke-dashoffset:0;stroke-opacity:1"
         id="rect8155"
         width="263.41818"
         height="132.36436"
         x="41.937241"
         y="86.495522" />
      <text
         xml:space="preserve"
         style="font-style:normal;font-weight:normal;font-size:45px;line-height:100%;font-family:Sans;text-align:center;letter-spacing:0px;word-spacing:0px;text-anchor:middle;fill:#000000;fill-opacity:1;stroke:none;stroke-width:1px;stroke-linecap:butt;stroke-linejoin:miter;stroke-opacity:1"
         x="172.79588"
         y="126.91772"
         id="text8157"
         sodipodi:linespacing="100%"><tspan
           style="font-size:34.83423615px"
           sodipodi:role="line"
           x="172.79588"
           y="126.91772"
           id="tspan8918">Библиотека</tspan><tspan
           style="font-size:34.83423615px"
           sodipodi:role="line"
           x="172.79588"
           y="161.75195"
           id="tspan8924">или</tspan><tspan
           style="font-size:34.83423615px"
           sodipodi:role="line"
           x="172.79588"
           y="196.58618"
           id="tspan8920">протокол</tspan></text>
    </g>
    <path
       sodipodi:nodetypes="cc"
       inkscape:connector-curvature="0"
       id="path8177"
       d="m -135.67377,206.14623 -49.60146,0"
       style="opacity:0.97000002;fill:#000000;fill-opacity:1;fill-rule:nonzero;stroke:#000000;stroke-width:5;stroke-linecap:round;stroke-linejoin:round;stroke-miterlimit:4;stroke-dasharray:none;stroke-dashoffset:0;stroke-opacity:1;marker-start:url(#marker8179);marker-end:url(#marker8309)" />
    <path
       style="fill:none;fill-rule:evenodd;stroke:#000000;stroke-width:5.00000048;stroke-linecap:butt;stroke-linejoin:miter;stroke-miterlimit:4;stroke-dasharray:none;stroke-opacity:1;marker-start:url(#marker11486);marker-end:url(#marker11658)"
       d="m -343.77582,279.91912 0,128.01433 206.68701,0"
       id="path11478"
       inkscape:connector-curvature="0"
       sodipodi:nodetypes="ccc" />
    <path
       sodipodi:nodetypes="cc"
       inkscape:connector-curvature="0"
       id="path12934"
       d="m -343.28043,127.45556 0,-49.601471"
       style="opacity:0.97000002;fill:#000000;fill-opacity:1;fill-rule:nonzero;stroke:#000000;stroke-width:5;stroke-linecap:round;stroke-linejoin:round;stroke-miterlimit:4;stroke-dasharray:none;stroke-dashoffset:0;stroke-opacity:1;marker-start:url(#marker12936);marker-end:url(#marker13102)" />
    <text
       xml:space="preserve"
       style="font-style:normal;font-weight:normal;font-size:35px;line-height:100%;font-family:Sans;text-align:start;letter-spacing:0px;word-spacing:0px;text-anchor:start;fill:#000000;fill-opacity:1;stroke:none;stroke-width:1px;stroke-linecap:butt;stroke-linejoin:miter;stroke-opacity:1"
       x="-460.47925"
       y="59.669773"
       id="text13778"
       sodipodi:linespacing="100%"
       transform="scale(0.99995671,1.0000433)"><tspan
         id="tspan13780"
         sodipodi:role="line"
         x="-460.47925"
         y="59.669773">http://.../.../...rdf</tspan></text>
  </g>
</svg>
